<?xml version="1.0" standalone="no"?>
<!DOCTYPE svg PUBLIC "-//W3C//DTD SVG 20010904//EN"
 "http://www.w3.org/TR/2001/REC-SVG-20010904/DTD/svg10.dtd">
<svg version="1.0" xmlns="http://www.w3.org/2000/svg"
 width="378.000000pt" height="322.000000pt" viewBox="0 0 378.000000 322.000000"
 preserveAspectRatio="xMidYMid meet">

<g transform="translate(0.000000,322.000000) scale(0.100000,-0.100000)"
fill="#000000" stroke="none">
<path d="M1025 2061 c-137 -62 -137 -230 0 -292 51 -24 99 -24 150 0 137 62
137 230 0 292 -51 24 -99 24 -150 0z"/>
<path d="M2255 1871 c-137 -62 -137 -230 0 -292 51 -24 99 -24 150 0 137 62
137 230 0 292 -51 24 -99 24 -150 0z"/>
<path d="M1318 1270 c-58 -31 -83 -74 -83 -145 0 -72 25 -115 85 -145 81 -41
192 -17 242 52 18 26 23 46 23 93 0 72 -25 115 -85 145 -51 26 -132 26 -182 0z"/>
<path d="M1878 1270 c-58 -31 -83 -74 -83 -145 0 -72 25 -115 85 -145 81 -41
192 -17 242 52 18 26 23 46 23 93 0 72 -25 115 -85 145 -51 26 -132 26 -182 0z"/>
</g>
</svg>
